<svg width="24" height="24" viewBox="0 0 24 24" fill="none" xmlns="http://www.w3.org/2000/svg">
<path fill-rule="evenodd" clip-rule="evenodd" d="M11.6894 4C15.9293 4 19.3781 7.3727 19.3781 11.5191C19.3781 13.4753 18.6104 15.2595 17.3542 16.5986L19.8261 19.0109C20.0574 19.2371 20.0582 19.6031 19.8269 19.8294C19.7116 19.9436 19.5592 20 19.4076 20C19.2568 20 19.1052 19.9436 18.9892 19.8309L16.4874 17.3912C15.1714 18.4219 13.5028 19.0389 11.6894 19.0389C7.44955 19.0389 4 15.6655 4 11.5191C4 7.3727 7.44955 4 11.6894 4ZM11.6894 5.15821C8.10251 5.15821 5.18433 8.01125 5.18433 11.5191C5.18433 15.0269 8.10251 17.8807 11.6894 17.8807C15.2756 17.8807 18.1938 15.0269 18.1938 11.5191C18.1938 8.01125 15.2756 5.15821 11.6894 5.15821Z" fill="#9F9F9F"/>
</svg>
